<svg xmlns="http://www.w3.org/2000/svg" viewBox="0 0 480 720"><defs><style>.cls-1{opacity:0.39;}.cls-2,.cls-3{fill:#efefef;}.cls-3,.cls-7{stroke:#fff;stroke-width:0.5px;}.cls-3,.cls-4,.cls-7{stroke-miterlimit:10;}.cls-4{fill:#fff;stroke:#163948;stroke-width:0.15px;}.cls-5{fill:#d1d3d4;}.cls-6,.cls-7{fill:none;}</style></defs><title>Artboard 3</title><g id="Layer_13" data-name="Layer 13"><path class="cls-2" d="M278.38,114.78s2.55,7.79-.18,14.94a2.09,2.09,0,0,1-1,1.22c-2.5,1.14-8-5.3-10.79-9.66a41.4,41.4,0,0,1-6.38-19.37c0-.07,0-.14,0-.23v-.13c-.1-1.17-.14-2.27-.15-3.28-1.19-4.87-2.33-9.41-3.39-13.63-1.18-4.72-2.3-9-3.32-13-4.56-17.39-7.7-27.86-9.84-33.58-1.37-3.69-2.34-5.42-3-5.76a4.53,4.53,0,0,1-2.44-2.05,4.26,4.26,0,0,1,.26-3.36c1.58-3.38,10.8-4.16,17.06-2.84,15.43,3.24,23.52,21.41,24,22.62C290.39,72.53,273.29,99.22,278.38,114.78Z"/><path class="cls-3" d="M272.45,61.89c0-1.49-.34-22.71-15.45-29.39-9.9-4.37-20,.19-22.35,1.29-3.55,2.68-15,12-16.47,26.87a32.53,32.53,0,0,0,.31,8.6l53.12.2A34.83,34.83,0,0,0,272.45,61.89Z"/><path class="cls-4" d="M300.13,166.84s0,0,0-.05l0,.18c0,.07,0,.13,0,.2v.07q-.18.76-.33,1.53s0,0,0,0,0,0,0,.06c0,.18-.08.37-.11.56l0,0v.05c-.26,1.19-.51,2.38-.75,3.59s-.5,2.46-.73,3.69q-.48,2.53-.95,5.05c-.06.35-.13.7-.19,1,.09-.82.21-1.66.33-2.5,0-.16,0-.32.06-.48.13-.83.26-1.66.4-2.47s.29-1.61.44-2.4c.07-.41.16-.83.25-1.23v-.1a.53.53,0,0,1,0-.12,2.46,2.46,0,0,1,.07-.29c.08-.43.18-.85.28-1.26,0-.11,0-.2.06-.3.11-.48.23-1,.35-1.43s.2-.82.29-1.23a.09.09,0,0,0,0-.07l0-.09c.14-.55.29-1.07.43-1.59C300,167.17,300.08,167,300.13,166.84Z"/><path class="cls-4" d="M191.27,165.33c.52,2.31,1,4.64,1.38,6.9v.05"/><path class="cls-4" d="M219.7,485.25s3.92,4-1.62,15"/><path class="cls-4" d="M275.27,485.25s-3.49,8.71,5.67,13.46"/><path class="cls-3" d="M236,39.08a48.87,48.87,0,0,0-14.85,25.67c-.7,3.36-2.71,13.63,1.64,24.79a29.21,29.21,0,0,0,6.07,10.11c1.33,1.41,7.33,7.79,15.59,8.29,8.83.54,17.82-5.77,22.41-15.73a71,71,0,0,0,3.72-15.58c.82-6.79,1.53-12.7-.9-19.59a28.26,28.26,0,0,0-9.35-13.51C250.32,35.86,238,38.61,236,39.08Z"/><path class="cls-3" d="M245.16,64.46c-1.35,3.65-2.39,6.79-3.15,9.27-.54,1.74-.89,3-.26,4.08,1.2,2.11,4.93,1.85,5.27,1.82.95-.08,2.74-.22,3.6-1.48s.41-2.59-.3-4.83a79.44,79.44,0,0,0-3.45-8.86,1.07,1.07,0,0,0-.82-.45A1.09,1.09,0,0,0,245.16,64.46Z"/><ellipse class="cls-3" cx="232.57" cy="64.01" rx="6.98" ry="6.19"/><ellipse class="cls-3" cx="259.04" cy="64.01" rx="6.98" ry="6.19"/><path class="cls-2" d="M200,642.37a20.83,20.83,0,0,0,1-7.86,41.81,41.81,0,0,0-.71-4.46,27.14,27.14,0,0,1-.38-4.3H180.2l0,1.28a12.47,12.47,0,0,1-.29,2.58c-.4,1.91-.95,2.38-1.41,3.86a13.55,13.55,0,0,0-.26,6.23,10.15,10.15,0,0,1,.26,4,6.76,6.76,0,0,1-.76,2c-1.44,2.69-1.73,5.57-3.42,11a71.69,71.69,0,0,1-3.11,8.54c-1.39,3.17-3.37,7.06-2.55,9.84.15.51.47,1.63,1.36,2a2,2,0,0,0,1.65-.16,2.12,2.12,0,0,0,.57-.51,1.52,1.52,0,0,0,0,.61,1.83,1.83,0,0,0,.12.31,2.7,2.7,0,0,0,1,1.38,2,2,0,0,0,2.74-.25,3.62,3.62,0,0,0,.41-.55,3.13,3.13,0,0,0,.06,1.09c.18.7.72,1.46,2.23,1.46s1.88-.78,1.92-1.53a0,0,0,0,0,0,0c0-.29-.09-.6-.08-.6s0,.27.09.5a4.12,4.12,0,0,0,.71,1.64,2.72,2.72,0,0,0,3.24.81c1.65-.51,2-2.82,2.09-4.23,0,0,0-.29,0-.3a21.1,21.1,0,0,0,.68,2.48,7.76,7.76,0,0,0,.47,1,4,4,0,0,0,1.34,1.09c2.39,1.17,5.08-.65,5.27-.79,0,0,2.5-1.59,3.62-7.42a15.64,15.64,0,0,0,.24-1.92c0-.3,0-.57,0-.81,0-.91-.1-2.17-.15-3.68a94.54,94.54,0,0,1,0-10.84C198.59,652.32,199.07,647.77,200,642.37Z"/><path class="cls-2" d="M176.24,678.79a3.08,3.08,0,0,1-3.2-.16,2.67,2.67,0,0,1-.79-1l.13-.35a2.7,2.7,0,0,0,1,1.38,2,2,0,0,0,2.74-.25C176.18,678.52,176.2,678.66,176.24,678.79Z"/><path class="cls-2" d="M180.62,677.85a1.92,1.92,0,0,0,0-.22,0,0,0,0,0,0,0h0C180.61,677.73,180.62,677.79,180.62,677.85Z"/><path class="cls-2" d="M336.47,662.53a74.24,74.24,0,0,1-3.63-8.32c-2-5.32-2.48-8.19-4.08-10.78a6.79,6.79,0,0,1-.87-1.92,5.17,5.17,0,0,1-.2-1.2,0,0,0,0,1,0,0,18.53,18.53,0,0,1,.21-2.78c0-.32.07-.75.1-1.23v-.36a12.1,12.1,0,0,0-.74-4.61c-.56-1.45-1.13-1.89-1.65-3.76a13.12,13.12,0,0,1-.37-1.77H305.45v.64c0,.89-.06,1.82-.15,2.81a39.9,39.9,0,0,0-.44,4.49v.36a20.47,20.47,0,0,0,1.48,7.43c1.24,5.33,2,9.86,2.45,13.31a100.85,100.85,0,0,1,.7,10.81c0,1.19,0,2.25,0,3.09,0,.22,0,.41,0,.6s0,.5.06.79A15.05,15.05,0,0,0,310,672a17.27,17.27,0,0,0,2.08,5,.61.61,0,0,1,.09.16,6.78,6.78,0,0,0,1.9,2,5.16,5.16,0,0,0,5.31.45,4,4,0,0,0,1.2-.92.32.32,0,0,0,.08-.09.87.87,0,0,0,.13-.15,2.35,2.35,0,0,0,.22-.26.05.05,0,0,1,0,0,5,5,0,0,0,.35-.9c0-.16.08-.32.12-.5a5.47,5.47,0,0,0,.13-1.18,3,3,0,0,0,0-.66,5.47,5.47,0,0,1,.23,1.06c0-.17,0-.35,0-.53a6.7,6.7,0,0,0,1.21,3.46,3,3,0,0,0,.59.38,3,3,0,0,0,2.36.18,2.53,2.53,0,0,0,.92-.6l.17-.17a1.46,1.46,0,0,0,.17-.22l0,0,0-.06c0-.09.08-.19.14-.35s0,0,0-.08.08-.29.13-.45a6.16,6.16,0,0,0,.2-1.11c0-.14,0-.28,0-.44a7.54,7.54,0,0,0,0-1.31.34.34,0,0,1,0-.1A6.8,6.8,0,0,1,328,676a1.15,1.15,0,0,1,.05-.22c0,.22,0,.44,0,.65s0,.32,0,.46a0,0,0,0,1,0,.05.06.06,0,0,1,0,0v.28a1.4,1.4,0,0,0,.95,1.05l.1,0a2.84,2.84,0,0,0,1.44-.12,2.55,2.55,0,0,0,1.22-.92,1,1,0,0,0,.13-.18,1.62,1.62,0,0,0,.14-.24,2.41,2.41,0,0,0,.14-.28v0a3.31,3.31,0,0,0-.05-.91,2,2,0,0,0,.2.26.36.36,0,0,0,0-.11,7.76,7.76,0,0,0,.08-1.84,3,3,0,0,0-.07-.85h0a2,2,0,0,0,0-.25,2.3,2.3,0,0,1,0,.26,7.62,7.62,0,0,1,.31,2.43v.13s0,0,0,0a.14.14,0,0,1,0,.09s0,0,0,0,0,.26,0,.4a2.29,2.29,0,0,0,.57.35,2.86,2.86,0,0,0,2.21-.61,2.47,2.47,0,0,0,.49-.54c0-.08.08-.15.11-.22l.14-.27c0-.08.05-.17.08-.25a.19.19,0,0,0,0-.07.41.41,0,0,0,0-.08s0,0,0,0v-.07l0-.27v-.13a6.73,6.73,0,0,0,0-1.27,5.43,5.43,0,0,0-.09-.93h0a6.4,6.4,0,0,0-.17-.83h0a2.32,2.32,0,0,1,0-.23,10.2,10.2,0,0,1,.29,1.73,1.81,1.81,0,0,1,0,.23,9.27,9.27,0,0,1,.14,1.54c.36.28.91.3,1.76-.1a1.38,1.38,0,0,0,.35-.22,3.3,3.3,0,0,0,.93-1.8,3.94,3.94,0,0,0,.09-.7.13.13,0,0,0,0-.08v0C339.86,668.71,337.9,665.32,336.47,662.53Zm-14.75,12c0,.3.06.58.06.86A8.15,8.15,0,0,1,321.72,674.57Z"/><path class="cls-2" d="M300.81,164.65l-.74,2.52v.07l-.5,1.69,0,.09-.63,2.15c.43-1.64.84-3.09,1.22-4.33a.4.4,0,0,1,0-.13C300.39,165.93,300.62,165.26,300.81,164.65Z"/><polyline class="cls-4" points="292.33 240.54 200.29 240.54 200.13 240.54 200.11 240.54"/><path class="cls-2" d="M308.91,323.05c-.22.51-1.53.4-1.63.39-.52,0-3-.06-12.92,6.22-6.48,4.12-10.61,7.35-10.61,7.35a284.59,284.59,0,0,0-24.12,21.6c.11-.57,1.63-9.52-4.75-15.24a15.46,15.46,0,0,0-9.71-3.81,16.09,16.09,0,0,0-11.66,4.6c-5.76,5.84-4.29,13.78-4.15,14.45A125.72,125.72,0,0,0,184.19,323l3.49-21.9,0-.26H305.88c.95,5.92,1.64,10.7,2.05,13.62,0,.19.05.38.07.56h0c.06.44.11.82.15,1.15,0,.17,0,.31.05.45.05.42.1.79.14,1.12.08.75.06.91.12,1.55,0,.43.08.77.11,1s.06.42.07.48c.05.32.07.39.1.59s0,.33.08.76C308.91,322.94,309,323,308.91,323.05Z"/><polyline class="cls-4" points="200.17 240.87 200.29 240.54 200.69 239.49"/><path class="cls-2" d="M187.92,478.36c0,.42,0,.84,0,1.26,2.21-1.2,26.75-14,42.16,4.28V484l.08,0c.07-.44.13-.88.19-1.33,1.75-13.24,2-31.22,2-31.22.15-10.84.26-17.84,1.19-27.75,1.2-12.84,3.33-26,3.33-26l.21-1.27q1.49-9.17,2.68-18.23a16,16,0,0,1-3.32-2.28,19,19,0,0,1-5-7.66,29.77,29.77,0,0,1-2.12-9.65c-2.72-3.38-5.66-6.73-8.87-10l-.75-.76-.18-.18-.59-.58c-.52-.51-1-1-1.59-1.53q-3.44-3.27-7.49-6.55c-1.11-.9-2.25-1.78-3.42-2.67-.7-.52-1.4-1-2.13-1.55-1.35-1-2.68-1.89-4-2.77-.88-.58-1.75-1.14-2.61-1.67,0,0,0,0,0,0-.85-.53-1.69-1-2.54-1.54-2.26-1.35-4.47-2.56-6.59-3.64-.66-.36-1.33-.69-2-1l-.09-.05c-.75-.37-1.48-.73-2.2-1.06a5.21,5.21,0,0,0-.08.55c-.68,4.77-1.38,10.1-2.13,16,0,0-6.14,41.95,3.36,86.28C185.44,425.88,188.12,454.1,187.92,478.36Z"/><path class="cls-2" d="M257.87,412.63c.47,2,1,4.31,1.66,7.32.38,1.76.76,3.67,1.17,6,1.23,6.88,2,13.13,2.52,18.08s.74,8.58.84,10.26c0,0,1.1,20.07,3.25,32.54.06.39.13.76.2,1.13l.11,0c-.07-.35-.14-.71-.21-1.09.37-.53.76-1.08,1.17-1.61a30,30,0,0,1,4.48-4.79c.37-.32.75-.62,1.13-.9s.68-.49,1-.73a27.86,27.86,0,0,1,3.06-1.75c.34-.18.68-.34,1-.49h0c.34-.16.69-.3,1-.42s.7-.27,1-.38.71-.23,1.05-.33l.66-.18.09,0a5.87,5.87,0,0,1,.6-.16,26.11,26.11,0,0,1,2.91-.53c.34-.05.7-.1,1.05-.12l.54-.05.64,0c8.81-.53,17,2.61,20.81,4.38,0-.05,0-.1,0-.15-.12-5.94.09-12.75.37-21.75.37-12,1.28-19.12,1.5-38,.05-4.38,0-3.27.05-10.34.16-22.7.71-28.76.62-39.39-.08-8.89-.71-15.95-1.88-30.08-.55-6.68-1.08-12.2-1.47-16a13.44,13.44,0,0,0-6.55,1.8c-6.94,3.86-9.06,5.29-9.06,5.29-3.14,2.14-6.33,4.43-9.56,6.9a210.51,210.51,0,0,0-24.13,21.6,31.11,31.11,0,0,1-4.55,14.59,29.6,29.6,0,0,1-3.91,5c1.44,12,2.59,18,3.42,21.31q.93,3.66,1.84,7.33C256.92,408.79,257.33,410.39,257.87,412.63Z"/><path class="cls-2" d="M220.76,530.94c0,.16,0,.33,0,.5A39.58,39.58,0,0,1,190,526c-.18-.12-.37-.24-.54-.37l-.49-.33-.36-.25c-.5-.36-1-.73-1.49-1.12-1-.77-2-1.6-3-2.5-.64-.58-1.27-1.2-1.9-1.84-.28-.29-.57-.58-.85-.88-4,19.74-2.58,50.38-2.58,50.38a543.34,543.34,0,0,1,1.53,56.06c0,.12,0,.23,0,.34H200c0-1.66.12-3.2.25-4.76,0,0,.78-9.93,7.86-31.91A168.88,168.88,0,0,0,217,557.9c2.29-12.39,3.61-19.51,3.78-27Z"/><path class="cls-2" d="M325.28,625.27c-.09-1.09-.19-2.11-.21-2.21-.3-4-.62-56.67-.62-56.67-.12-19.38-.18-29.07-3-40.49-.76-3.12-1.51-5.62-2.25-7.77a.39.39,0,0,0-.06-.15c-13.88,15.28-29.42,15.78-40.16,13.42,0-.19,0-.39-.05-.58h0l.06.87c.62,7.37,2.38,14.39,5.41,26.52a169,169,0,0,0,10.78,30.3C303.56,610,305,619.87,305,619.87a52.93,52.93,0,0,1,.58,5.6c0,.21,0,.42,0,.64v-.64h19.73C325.29,625.4,325.28,625.33,325.28,625.27Z"/><line class="cls-4" x1="211.78" y1="187.27" x2="211.77" y2="187.27"/><line class="cls-4" x1="274.75" y1="189.76" x2="274.74" y2="189.76"/><path class="cls-2" d="M230.06,483.9a53.24,53.24,0,0,1-1.75,8.2s-.94,2.85-.94,2.85a30.47,30.47,0,0,1-2.54,5.15,28.31,28.31,0,0,1-1.61,2.37c-3.73,5.07-2.76,18.38-2.57,24.14.06,1.75,0,3.43,0,5.11-10.59,2.28-25.79,1.75-39.46-12.86a48.34,48.34,0,0,1,3.06-10.45c2.49-5.52,3.47-16.53,3.64-28.78C190,478.45,214.62,465.62,230.06,483.9Z"/><path class="cls-2" d="M319.22,518.09c-13.91,15.44-29.54,15.95-40.32,13.59-.13-1.47-.21-3-.26-4.49-.16-5.76,0-19.09-4-23.93A30.75,30.75,0,0,1,270,496s-.62-1.35-1.11-2.79a45.92,45.92,0,0,1-1.49-6.34c.37-.53.76-1.08,1.16-1.61,13.28-17.54,34.34-9.83,41.18-6.66a92.76,92.76,0,0,0,1.84,16.84C313.89,506.89,316.46,509.91,319.22,518.09Z"/><path class="cls-2" d="M229.1,355.94c0-1-.18-8.05,5.37-12.79a15.47,15.47,0,0,1,9.13-3.59,16.79,16.79,0,0,1,11.91,4.34,16,16,0,0,1,4.52,11,28.08,28.08,0,0,1-.4,4.15,38.29,38.29,0,0,1-2.24,9.67c-.26.64-.52,1.21-.78,1.74a29.59,29.59,0,0,1-2,3.49c-1.75,2.6-2.62,3.9-4.18,4.8a9.63,9.63,0,0,1-5,1.17,11.69,11.69,0,0,1-4.6-1,14,14,0,0,1-4.39-3,20,20,0,0,1-2.72-3.16h0a26.88,26.88,0,0,1-3.49-8.34c-.14-.63-.28-1.32-.28-1.32-.13-.63-.24-1.3-.35-2A42.41,42.41,0,0,1,229.1,355.94Z"/><path class="cls-2" d="M305.88,300.82H187.73c1.82-9.59,3.28-14.34,4.43-16.62l4.34-8.5c.94-2.24,1.49-3.54,1.86-4.39s.53-1.27.72-1.75a35.26,35.26,0,0,0,2.28-13.17c0-.33,0-.66,0-1,0-3.4-.36-6.84-.69-10.35-.15-1.71-.31-2.92-.49-4.17,0-.11,0-.22,0-.33h92.2c0,1.18-.05,2.52-.06,4.06,0,.57,0,1.18,0,1.82,0,.46,0,1,0,1.46,0,.33,0,.68,0,1,0,2.09,0,4.47-.07,7.15,0,1.27,0,2.4,0,3.44a24.59,24.59,0,0,0,1.13,7.7c1,2.92,2,4.26,3.81,7.81,0,0,1.91,3.64,5.3,12.37A73.73,73.73,0,0,1,305.88,300.82Z"/><path class="cls-2" d="M299,172.89a56.4,56.4,0,0,0-1.64,7.36c-.21,1.37-.23,2.39-.56,5.34-.21,1.86-.4,3.38-.54,4.41a22.2,22.2,0,0,0-5.42-10.31,20.32,20.32,0,0,0-9.6-6,17.12,17.12,0,0,0-1.87-.39,21.69,21.69,0,0,0-11.86,1.37,18.52,18.52,0,0,0-3.54,2A21.43,21.43,0,0,0,256.08,188a21.17,21.17,0,0,0-.14,10.69H236.35a21.34,21.34,0,0,0-.34-10.24,22.07,22.07,0,0,0-6.29-10,17.45,17.45,0,0,0-1.58-1.26c-7.56-5.37-15.94-3.31-17.26-3a21.51,21.51,0,0,0-9.72,5.64h0a1.27,1.27,0,0,0-.1.12l0,0c-.12.13-.23.28-.38.44a23.11,23.11,0,0,0-4.35,7.89v0a18.53,18.53,0,0,0-.85,3.78c0,.13,0,.27,0,.27a153.86,153.86,0,0,0-2.88-20.63c-.54-2.42-1-4.15-1.56-6.08-1.72-6.23-3-11-5.56-16.18A56.73,56.73,0,0,0,179,139.22a19.23,19.23,0,0,1,2.63-2.16c.24-.17.49-.33.75-.49a16,16,0,0,1,2.4-1.23c.27-.12.56-.24.86-.34s.58-.21.87-.29.55-.17.84-.24l.21-.06c.57-.13,1.16-.25,1.78-.34a21.54,21.54,0,0,1,4.52-.18,58.58,58.58,0,0,0,6.89,0l1.08-.09c.36,0,.7-.05,1.05-.1l.8-.1c1-.13,1.9-.28,2.79-.46l.66-.14.55-.13.89-.23a7.2,7.2,0,0,0,.86-.25,27.09,27.09,0,0,0,3.19-1.15,256.9,256.9,0,0,0,32.31,2.18,255.88,255.88,0,0,0,34.57-2.18c.92.39,1.73.67,2.37.89s1.1.36,1.68.51c.29.08.58.16.89.23l.68.16,1.16.23c.31.06.63.12,1,.16s.82.14,1.23.18l.78.1c.35.05.69.08,1.05.1s.7.06,1.06.09a58.58,58.58,0,0,0,6.89,0c.49,0,1,0,1.44,0s.7,0,1,0,.61,0,.9.06c.48,0,.93.09,1.37.16s.9.17,1.33.27l.23,0,.42.11a5.61,5.61,0,0,1,.62.18c.27.08.53.16.78.26a15.86,15.86,0,0,1,2.38,1l.62.35,0,0c.2.12.41.24.6.37a4.76,4.76,0,0,1,.47.31c.24.16.48.33.71.51-2,4.43-4,9.24-5.86,14.4A202.24,202.24,0,0,0,299,172.89Z"/><path class="cls-2" d="M299.23,171c-.13.5-.27,1-.38,1.55.08-.42.17-.84.28-1.26a2.47,2.47,0,0,1,.06-.29Z"/><path class="cls-2" d="M301.13,164.52l-1.23,4.2v.05l-.66,2.27c.27-1.06.54-2,.8-2.93,0,0,0,0,0-.05C300.44,166.67,300.81,165.48,301.13,164.52Z"/><path class="cls-2" d="M200.52,241.58l-.12.32a3.11,3.11,0,0,1,0-.32Z"/><path class="cls-2" d="M294.89,221.61c-.85,6-1.18,5.55-1.88,11.51a86.81,86.81,0,0,0-.45,9.06c0-.2,0-.41,0-.6h-92.2a3.11,3.11,0,0,0,0,.32c0,.18,0,.35.07.53a.16.16,0,0,0-.09,0c-.37-2.53-.86-5.34-1.72-12.94,0,0-.43-3.68-.74-6.84-.15-1.56-.51-5.65-1.12-17.36-.09-1.83-.22-4.43-.36-7.57l99.87-.69c.07,1.65.15,3.29.23,4.94-.22,3.77-.45,7-.65,9.56C295.58,215.66,295.3,218.7,294.89,221.61Z"/><path class="cls-3" d="M236.5,196.24a21,21,0,0,1-1.55,4.84,22.5,22.5,0,0,1-5.45,7.19,23.84,23.84,0,0,1-12,6.53c-2.06.4-8.07,1.54-13.69-1.78a17.22,17.22,0,0,1-7.21-8.79,19.91,19.91,0,0,1-1.05-3.4v-.1a23.47,23.47,0,0,1-.44-7.68,1.18,1.18,0,0,1,0-.27A18.74,18.74,0,0,1,196,189a22.87,22.87,0,0,1,4.36-7.88l.38-.44,0,0,.11-.12h0l2.41-2.06,4.14-2.59a22,22,0,0,1,23.75,4.65,20,20,0,0,1,4.92,8.94A19.71,19.71,0,0,1,236.5,196.24Z"/><path class="cls-3" d="M254.88,195.83a20.52,20.52,0,0,0,1.55,4.84,22.42,22.42,0,0,0,5.45,7.2,23.79,23.79,0,0,0,12,6.53c2.07.39,8.08,1.53,13.69-1.79a17.29,17.29,0,0,0,7.22-8.79,20.84,20.84,0,0,0,1.05-3.4v-.09a27.47,27.47,0,0,0,.64-3.29,20,20,0,0,0,.2-4.5,17.08,17.08,0,0,0-.84-3.91,22.11,22.11,0,0,0-5-8.16,24.15,24.15,0,0,0-3.12-2.88A25.31,25.31,0,0,0,285.1,176c-.38-.19-.75-.38-1.12-.54a21.94,21.94,0,0,0-23.74,4.65,19.89,19.89,0,0,0-4.92,8.93A19.46,19.46,0,0,0,254.88,195.83Z"/><path class="cls-2" d="M263,133.62c-6.94-.83-7.42.75-18.65.69a220.06,220.06,0,0,1-31.87-2.55l-.2-.36c2.31-1.39,12.25-7.75,15.14-20.15a30.65,30.65,0,0,0,0-13.74c.27.36.56.7.87,1.06h0a22.4,22.4,0,0,0,6.72,6.12,21.72,21.72,0,0,0,5.95,2.42c.24.06.47.13.71.18a2.29,2.29,0,0,0,.36.07,12.44,12.44,0,0,0,1.62.27,7,7,0,0,0,.92.1h.59a16.86,16.86,0,0,0,4.24-.37l.24,0,.25,0c.15,0,.32-.08.5-.12l.28-.07a6.7,6.7,0,0,0,.76-.24,2.64,2.64,0,0,0,.48-.14,22.45,22.45,0,0,0,3.66-1.52,21.53,21.53,0,0,0,4.31-3c-.13,4,.16,13,6,19.51,3,3.33,9.25,8.16,13.71,9.56.48.15,2.86.87,2.79,1.34,0,.29-1,.36-1.39.39C266.83,134.08,263,133.62,263,133.62Z"/><path class="cls-2" d="M227.29,97.24a.08.08,0,0,1,0,0l.16.23a.43.43,0,0,0,0,.07c.21.32.44.68.73,1.06-.31-.36-.6-.7-.87-1.06,0-.13-.05-.21-.05-.26Z"/><path class="cls-2" d="M243.58,107.64a12.44,12.44,0,0,1-1.62-.27C242.55,107.49,243.1,107.58,243.58,107.64Z"/><path class="cls-2" d="M245.09,107.76H246l.49,0a24.93,24.93,0,0,0,3.66-.54l.3-.08a8.2,8.2,0,0,0,.88-.23,6.7,6.7,0,0,1-.76.24l-.28.07c-.18,0-.35.07-.5.12l-.25,0-.24,0A16.86,16.86,0,0,1,245.09,107.76Z"/><path class="cls-2" d="M135.38,337.88c-.7,7.89-2.51,14.66-3.46,16.48a10.09,10.09,0,0,0-.92,2.45,10.36,10.36,0,0,0-.23,1.78,95.14,95.14,0,0,0,.15,11.59c.13,1.58.3,3-.56,4.38-.19.29-.89,1.38-1.94,1.42a2.54,2.54,0,0,1-1.74-.89c-1.46-1.57-1.11-4-1-7.43.08-1.76.14-4.32,0-7.5-1.29-4.55-3.22-.14-3.22-.14-2,10.39-3.63,17.92-4,19.29a6.41,6.41,0,0,1-1.64,2.95l-.09.07a2.53,2.53,0,0,1-2.53.1,3.13,3.13,0,0,1-1.18-2.57,19.78,19.78,0,0,1,1-7.77,94.37,94.37,0,0,0,2.34-11.81c0-.32.48-3.48-.41-3.82a1.27,1.27,0,0,0-.83,0,1.41,1.41,0,0,0-.71.65c-1.72,4.66-2.83,8.38-3.56,11l-2.79,7.32c-.65,1.74-1.18,3.08-2.55,3.77a3.34,3.34,0,0,1-3.45-.11c-.9-.72-.9-2-.9-3.06,0-1.93.61-2.92,2-7,.54-1.6.41-1.34.72-2.22,1.37-3.87,4.17-9.67,4.13-11.94,0-.22,0-.75-.3-.88s-1,.47-1,.47l-6.83,11.19c-1.29,2.84-3.17,4.69-4.8,4.5a1.8,1.8,0,0,1-1-.44c-1-.9-.9-3,.3-5.34.7-1,1.72-2.45,2.81-4.31a62.1,62.1,0,0,0,5.52-12.7,87.48,87.48,0,0,0,2.63-9.41,42.25,42.25,0,0,1-3.08,3.75c-2.72,2.93-4.52,4.82-7.12,5.11-1.42.14-3.73-.12-4.17-1.43s1-2.61,1.21-2.78c1.71-1.79,4.24-4.53,7.12-8.05,2.37-2.86,3-3.86,3.88-4.82,2.19-2.43,6.11-5,13.73-5.81a6.8,6.8,0,0,1-.2-.84c.23.17.45.34.68.49s.33.25.51.37a33.3,33.3,0,0,0,7.43,4.06,31.45,31.45,0,0,0,3.28,1.09l.12,0a30.49,30.49,0,0,0,6.43.84,21.29,21.29,0,0,1,.44,3.37A25.89,25.89,0,0,1,135.38,337.88Z"/><path class="cls-2" d="M128.62,329.1a31.45,31.45,0,0,1-3.28-1.09,33.3,33.3,0,0,1-7.43-4.06A37.23,37.23,0,0,0,128.62,329.1Z"/><path class="cls-2" d="M401.43,345.39c-.53,1.31-2.95,1.56-4.16,1.43-2.59-.29-4.4-2.18-7.12-5.11a40.13,40.13,0,0,1-3.07-3.75,57.94,57.94,0,0,0,2.62,9.41,102.7,102.7,0,0,0,5.76,12.2c1.05,2,1.94,3.65,2.58,4.81,1.19,2.32,1.29,4.44.29,5.34a1.83,1.83,0,0,1-1,.44c-1.63.19-3.49-1.66-4.8-4.5l-6.57-11c-.06-.05-.6-.62-1.05-.45s-.44.5-.49.69c-.45,1.55,1.11,4.91,1.12,4.91,1.23,3.33,2.32,5.89,3.09,7.65.18.4.66,1.65,1.64,4.13.87,2.22,1.25,3.23,1.17,4.62a3.72,3.72,0,0,1-1.08,2.92,3.45,3.45,0,0,1-3.47.11c-1.35-.69-1.88-2-2.55-3.77l-2.79-7.32c-.71-2.6-1.83-6.32-3.55-11a1.23,1.23,0,0,0-.7-.79,1.12,1.12,0,0,0-.84.1c-.91.5-.55,3-.42,3.82.7,4.55,1.68,8.57,2.35,11.81.25,1.25,0,.1.58,3.36a12.61,12.61,0,0,1,.41,4.41c-.16,1-.32,2.08-1.19,2.57a2.55,2.55,0,0,1-2.54-.1l-.08-.07a6.25,6.25,0,0,1-1.63-2.95q-.69-3.09-1.35-6.27c-.86-4.13-1.62-8.2-2.32-12.18a7.33,7.33,0,0,0-.58-2c-.18-.39-.33-.63-.61-.74a1.23,1.23,0,0,0-1,0c-.69.33-.85,1.33-.91,1.75a50.11,50.11,0,0,0-.5,7.92c0,3.83.12,5.47-.94,6.53a2.37,2.37,0,0,1-1.59.8,2.67,2.67,0,0,1-1.92-1.09c-.94-1.15-.45-2.53-.45-5.3a93.73,93.73,0,0,0-.11-10.13,11.63,11.63,0,0,0-.24-1.78,11.28,11.28,0,0,0-.91-2.45c-.95-1.82-2.77-8.59-3.47-16.48-.49-5.45-.05-7-.15-9.86a40,40,0,0,0,17.65-5.9l1,1.81c7.63.8,11.54,3.38,13.73,5.81,1.19,1.33.91,1.26,3.87,4.82C398.94,341.6,402.15,343.67,401.43,345.39Z"/><path class="cls-5" d="M300.48,166a.79.79,0,0,1,0,.13l0,.2v.07c-.12.51-.23,1-.34,1.53,0,0,0,0,0,.05s0,0,0,.06a2.33,2.33,0,0,0-.08.38l0,.18v.09c0,.14-.06.27-.1.42-.22,1-.44,2.1-.65,3.17,0,.16-.07.32-.1.48s0,0,0,0q-.32,1.58-.63,3.18c-.32,1.69-.64,3.37-.95,5-.06.35-.13.7-.19,1,.1-.82.22-1.66.34-2.51a3.78,3.78,0,0,1,.06-.47c.13-.83.26-1.66.4-2.47v0a.51.51,0,0,0,0-.13.32.32,0,0,1,0-.09c.12-.73.25-1.44.39-2.14.07-.41.15-.83.25-1.23v-.1a.43.43,0,0,1,0-.12c0-.1.05-.2.07-.29.09-.43.18-.85.29-1.26a2.65,2.65,0,0,1,.06-.3c.11-.49.22-1,.34-1.44s.19-.78.29-1.16l0-.13,0-.09c.14-.55.28-1.07.42-1.6Z"/><path class="cls-5" d="M191.61,164.45c.53,2.31,1,4.64,1.38,6.9v0Z"/><path class="cls-2" d="M153.62,264.45a40.18,40.18,0,0,1-11.56-8.59s-.07.12-.12.19a.37.37,0,0,1-.06.1c0,.05,0,.09,0,.09h0c-.05.09-.05.11,0,.11h0s0,0,0,0l.1.1s.06.05.09.1c.2.21.36.38.47.48a5.47,5.47,0,0,0,.47.48l.23.24.35.33.11.11c.69.65,1.37,1.24,1.37,1.24.2.17.49.43.87.74.63.51,1.17.91,1.51,1.17a36.29,36.29,0,0,0,3.33,2.21l1,.6a41.24,41.24,0,0,0,5.21,2.43,38.53,38.53,0,0,0,7.57,2.05,35.71,35.71,0,0,0,3.87.47c.14-.23.28-.45.41-.68A39.83,39.83,0,0,1,153.62,264.45ZM195.39,177a30.31,30.31,0,0,0-.69-4.76c-.11-.5-.21-.91-.28-1.19-3.24-13.32-9.82-27-13.24-33.61a19.94,19.94,0,0,0-2,1.77,57.61,57.61,0,0,1,6.33,10.12c2.53,5.18,3.84,10,5.56,16.17.54,1.93,1,3.67,1.56,6.09a142.83,142.83,0,0,1,2.85,20.54.22.22,0,0,0,0,.08,23.23,23.23,0,0,0,.26,6.82c0-.5.05-1,.06-1.46v0c0-3.94.14-6.14.22-8.14h0a.43.43,0,0,0,0-.16l0,0c0-.62,0-1.24.05-1.88C196.09,185.91,195.85,182.93,195.39,177Z"/><path class="cls-2" d="M195.7,199v0c0,.25,0,.5,0,.76,0,.72-.08,1.42-.13,2.13q-1.25,2.13-2.48,4.27c-9,21.47-12.38,30.79-13.37,34.61-.27,1.06-1.62,6.58-4.15,13.85v0s-.94,2.63-1,2.75a115.74,115.74,0,0,1-5.8,11.79l-.33,0c.14-.23.28-.45.41-.68a40,40,0,0,1-26.76-12.63,0,0,0,0,0,0,0,1.83,1.83,0,0,1,.18-.24l.08-.12a8.78,8.78,0,0,1,.68-.84,23.79,23.79,0,0,0,1.73-2.54c.07-.12.32-.53.82-1.33.37-.59.65-1.06.87-1.39.3-.51.53-.88.54-.91,1.84-3,2.63-5.17,4.57-9.58,2.47-5.64,3.73-7.81,5.24-11,6.38-13.69,9.15-28.8,9.92-33.93a150.35,150.35,0,0,0,1.7-17.47s-.91-25.76,10.75-37.29a57.61,57.61,0,0,1,6.33,10.12c2.53,5.18,3.84,10,5.56,16.17.54,1.93,1,3.67,1.56,6.09a142.83,142.83,0,0,1,2.85,20.54.22.22,0,0,0,0,.08A23.23,23.23,0,0,0,195.7,199Z"/><path class="cls-2" d="M350.24,256a.3.3,0,0,1-.05-.1.24.24,0,0,1-.06-.11l-.07-.11.19.45h0s0,0,0,0S350.28,256.07,350.24,256Zm-26.92,12.94a40.81,40.81,0,0,0,4.19-.48,40.29,40.29,0,0,0,7.59-2.06,42.87,42.87,0,0,0,5.21-2.42l1-.61c1.43-.84,2.5-1.6,3.09-2-4.85,3.3-11.65,6.11-21.3,7.21C323.18,268.66,323.25,268.79,323.32,268.92ZM311.07,137.27l-.05,0a1.27,1.27,0,0,0-.13-.11h0c-3.43,6.61-10,20.29-13.24,33.6-.07.27-.18.69-.3,1.19a30.92,30.92,0,0,0-.67,4.76c-.47,6-.7,8.95-.68,10.32,0,.17,0,.35,0,.53.23.39.47.8.72,1.21,0-1.1.08-2.22.13-3.32.09-1.66.27-3.45.55-5.35.19-1.22.42-2.39.67-3.51-.14.81-.27,1.64-.4,2.47a3.78,3.78,0,0,0-.06.47c-.12.85-.24,1.69-.34,2.51.06-.34.13-.69.19-1,.31-1.68.63-3.36.95-5q.31-1.6.63-3.18s0,0,0,0a202,202,0,0,1,6.33-20.92c1.88-5.16,3.86-10,5.87-14.39l-.17-.13ZM296.63,191a0,0,0,0,0,0,0,.43.43,0,0,0,0-.11c-.07-.33-.13-.67-.18-1s-.12-.56-.18-.82l-.21-.81c.09,2.27.27,4.5.27,9v0c0,.6,0,1.19.07,1.8.11-.5.19-1,.26-1.51h0v0a23.79,23.79,0,0,0,.2-4,19,19,0,0,0-.14-2A3.81,3.81,0,0,0,296.63,191Z"/><path class="cls-2" d="M350.25,256.11s0,0,0,0,0,0-.09.11l-.1.09-.46.49c-.21.23-.38.39-.47.49l-.24.22-.34.34a.6.6,0,0,1-.11.1c-.69.66-1.37,1.25-1.37,1.25l-.88.74c-.62.51-1.16.91-1.52,1.18l-.22.17c-4.85,3.3-11.65,6.11-21.3,7.21-3.71-7-5.11-10-5.59-11.4,0-.12-1-2.76-1-2.76h0c-2.53-7.28-3.88-12.8-4.15-13.85-1-3.83-4.36-13.15-13.37-34.61-.82-1.43-1.65-2.85-2.48-4.28-.06-.7-.1-1.4-.15-2.12,0-.16,0-.3,0-.44h0c.11-.5.19-1,.26-1.51h0v0a23.79,23.79,0,0,0,.2-4,19,19,0,0,0-.14-2,3.81,3.81,0,0,0-.07-.47,0,0,0,0,0,0,0,.43.43,0,0,0,0-.11c-.07-.33-.13-.67-.18-1s-.12-.56-.18-.82l-.21-.81h0c0-.21,0-.43,0-.64.23.39.47.8.72,1.21,0-1.1.08-2.22.13-3.32.09-1.66.27-3.45.55-5.35.19-1.22.42-2.39.67-3.51-.14.81-.27,1.64-.4,2.47a3.78,3.78,0,0,0-.06.47c-.12.85-.24,1.69-.34,2.51.06-.34.13-.69.19-1,.31-1.68.63-3.36.95-5q.31-1.6.63-3.18s0,0,0,0a202,202,0,0,1,6.33-20.92c1.88-5.16,3.86-10,5.87-14.39,13.4,10.63,12.41,38.78,12.41,38.78a149.88,149.88,0,0,0,1.68,17.47c.78,5.12,3.55,20.24,9.94,33.93,1.49,3.23,2.75,5.41,5.23,11,2,4.4,2.74,6.61,4.56,9.58,0,0,.25.39.56.9.22.34.5.81.87,1.39.49.81.73,1.21.82,1.33a21.45,21.45,0,0,0,1.73,2.54c.05.06.33.38.67.85a1.06,1.06,0,0,0,.09.13c.1.13.12.13.18.22l0,.06,0,0Z"/><path class="cls-2" d="M168.41,269.17c-7.88,13.08-22.83,38-22.83,38-5.66,8.15-9.61,13.27-10.24,21.28a27.17,27.17,0,0,0,0,3.58,34,34,0,0,1-6.45-1.11l-.11,0A37.23,37.23,0,0,1,118,325.72c-.18-.12-.35-.24-.51-.37s-.42-.31-.61-.46c1.37-2.56,6.72-12.61,10.86-22.18a75.74,75.74,0,0,0,4.16-11.87c.5-2,.83-3.63,1-4.75,1.3-11.37,4.56-20.89,8.91-30.43l.19.2s-.07.12-.12.19a.37.37,0,0,1-.06.1c0,.05,0,.09,0,.09h0c-.05.09-.05.11,0,.11h0s0,0,0,0l.1.1s.06.05.09.1c.2.21.36.38.47.48a5.47,5.47,0,0,0,.47.48l.23.24.35.33.11.11c.69.65,1.37,1.24,1.37,1.24.2.17.49.43.87.74.63.51,1.17.91,1.51,1.17a36.29,36.29,0,0,0,3.33,2.21l1,.6a41.24,41.24,0,0,0,5.21,2.43,38.53,38.53,0,0,0,7.57,2.05A35.71,35.71,0,0,0,168.41,269.17Z"/><path class="cls-2" d="M128.74,330.87a31.45,31.45,0,0,1-3.28-1.09,33.3,33.3,0,0,1-7.43-4.06A37.23,37.23,0,0,0,128.74,330.87Z"/><path class="cls-2" d="M168.82,268.49c-.13.23-.27.45-.41.68a35.71,35.71,0,0,1-3.87-.47,38.53,38.53,0,0,1-7.57-2.05,41.24,41.24,0,0,1-5.21-2.43l-1-.6a36.29,36.29,0,0,1-3.33-2.21c-.34-.26-.88-.66-1.51-1.17-.38-.31-.67-.57-.87-.74,0,0-.68-.59-1.37-1.24l-.11-.11-.35-.33-.23-.24a5.47,5.47,0,0,1-.47-.48c-.11-.1-.27-.27-.47-.48,0-.05-.07-.07-.09-.1l-.1-.1s0,0,0,0h0s0,0,0-.11h0s0,0,0-.09a.37.37,0,0,0,.06-.1c.05-.07.08-.14.12-.19a40,40,0,0,0,26.76,12.63Z"/><path class="cls-2" d="M323.12,268.53c.06.13.13.26.2.39a40.81,40.81,0,0,0,4.19-.48,40.29,40.29,0,0,0,7.59-2.06,42.87,42.87,0,0,0,5.21-2.42l1-.61c1.43-.84,2.5-1.6,3.09-2C339.57,264.62,332.77,267.43,323.12,268.53Zm26.94-12.87.19.45h0C350.2,256,350.13,255.8,350.06,255.66Z"/><path class="cls-2" d="M374.48,323.88A39.32,39.32,0,0,1,357,329.75c-.16-.89-.33-1.79-.55-2.7a48.72,48.72,0,0,0-10.08-19.89s-13.76-19.78-23-38.24a40.81,40.81,0,0,0,4.19-.48,40.29,40.29,0,0,0,7.59-2.06,42.87,42.87,0,0,0,5.21-2.42l1-.61c1.43-.84,2.5-1.6,3.09-2l.22-.17a31.8,31.8,0,0,0,5.29-4.57l.35-.39,0-.08h0l0,.08a0,0,0,0,0,0,0s0,0,0,0A97.41,97.41,0,0,1,359,286.09c.22,1.12.54,2.77,1.05,4.75.28,1.14.59,2.23.91,3.27a81.14,81.14,0,0,0,3.24,8.6C365.91,306.72,369.49,314.27,374.48,323.88Z"/><path class="cls-3" d="M221.42,66.59c-.42-.32-2.21-1.64-4.1-1.09a3.31,3.31,0,0,0-.59.25,5.06,5.06,0,0,0-1.15.89c-.39.42-1.63,2.46-1.33,6a13.55,13.55,0,0,0,3.81,8.41c1.29,1.25,3.2,2.51,3.56,2.17,0,0,.08-.12,0-.74a9,9,0,0,0-.3-1.63,33.78,33.78,0,0,1-.59-6.53,31,31,0,0,1,0-3.22A22.47,22.47,0,0,1,221.42,66.59Z"/><path class="cls-3" d="M271.48,66.28a4.7,4.7,0,0,1,1.11-.59,4.41,4.41,0,0,1,2.24-.19,3.56,3.56,0,0,1,.6.25,4.89,4.89,0,0,1,1.14.89c.39.42,1.64,2.46,1.34,6a13.19,13.19,0,0,1-3.81,8.41c-1.76,1.66-4.2,2.87-4.54,2.49-.09-.11,0-.31.22-1a18.35,18.35,0,0,0,.47-2.31c.61-3.19,1-3.88,1.18-6,0-.41,0-1.35.05-3.22C271.49,69.1,271.48,67.43,271.48,66.28Z"/><path class="cls-5" d="M299.29,170.87c-.13.5-.26,1-.38,1.56.09-.43.18-.85.29-1.26a1.45,1.45,0,0,1,.06-.3Z"/><polyline class="cls-6" points="200.52 239.98 200.64 239.66 201.04 238.61"/><path class="cls-5" d="M268.91,484.38c.18-.24.35-.47.54-.69l-.53.69c-.4.53-.8,1.08-1.16,1.61.07.38.14.74.21,1.09h0c-.08-.35-.14-.72-.21-1.1C268.11,485.46,268.5,484.91,268.91,484.38Z"/><path class="cls-5" d="M279.31,530.81h-.05c0-.17,0-.33,0-.5h0Z"/><path class="cls-3" d="M268.69,87.07c-.55,2-1.12,3.69-1.64,5.13a30.37,30.37,0,0,1-7.2,9.88,23.24,23.24,0,0,1-9.34,5.24l-.29.07c-.17,0-.34.07-.51.12l-.25,0a22.91,22.91,0,0,1-4.25.4,1.61,1.61,0,0,1-.22,0h-.44l-.92-.1c-.49-.06-1-.15-1.63-.27l-.61-.13c-6.57-1.65-11.2-6.57-12.35-7.79-.27-.3-.53-.58-.78-.88-.39-.51-.69-1-.93-1.37a3,3,0,0,1,.06.31A33.3,33.3,0,0,1,223,89.54c-.29-.76-.53-1.5-.75-2.23,2.06-.5,4.18-1,6.38-1.33A103.19,103.19,0,0,1,268.69,87.07Z"/><path class="cls-5" d="M268.91,484.38c.18-.24.35-.47.54-.69l-.53.69c-.4.53-.8,1.08-1.16,1.61.07.38.14.74.21,1.09h0c-.08-.35-.14-.72-.21-1.1C268.11,485.46,268.5,484.91,268.91,484.38Z"/><path class="cls-5" d="M279.27,530.31l0,.5h-.05c0-.17,0-.33,0-.5Z"/><path class="cls-7" d="M204.09,137.62s14.85,0,24.15-3.16a8.73,8.73,0,0,1,4.43-.47c3,.48,5.72,4.09,9.43,5.18a9.48,9.48,0,0,0,5.14,0c4.16-1.22,4.65-3.77,7.76-5.22,4.82-2.25,8.65,2.17,18.7,3.56a40.8,40.8,0,0,0,9.87.15"/><path class="cls-7" d="M233.48,240.61s4.35-10.32,6.73-11.11"/><path class="cls-7" d="M254.45,230.69s7.13,7,7.72,9.92"/><path class="cls-7" d="M246.54,274.22s-5.15,11.48.79,10.88c4.3-1.88.35-5.73.35-5.73"/><path class="cls-7" d="M215.47,333.19s21,11.87,26,26"/><path class="cls-7" d="M253.07,359.21S267.71,337.35,278.4,334"/><path class="cls-7" d="M197.46,499.81s3,4.75,10.89,4.75"/><path class="cls-7" d="M294.23,504.56c2.77-.6,6.43,1.08,12.27-4.75"/><path class="cls-7" d="M240.42,31.92s-4.94,3.66-4.49,6.3"/></g></svg>